<svg xmlns="http://www.w3.org/2000/svg" viewBox="0 0 1632 1328" role="img" aria-label="Keen">
<g transform="translate(0,1328) scale(0.1,-0.1)" fill="#111111">
<path d="M217 13254 c-65 -20 -158 -111 -180 -174 -34 -102 -39 -130 -34 -187
4 -32 9 -83 12 -113 3 -30 10 -107 15 -170 6 -63 15 -145 20 -182 25 -171 32
-217 41 -273 12 -70 23 -127 39 -210 6 -33 16 -82 21 -110 6 -27 15 -68 20
-90 16 -61 26 -102 49 -200 12 -49 25 -101 30 -115 4 -14 13 -45 20 -70 25
-91 143 -437 172 -505 16 -38 43 -105 59 -147 30 -83 38 -101 131 -303 84
-182 170 -344 316 -590 224 -378 489 -731 778 -1038 337 -356 722 -666 1152
-924 77 -47 286 -156 415 -218 375 -179 815 -316 1237 -384 387 -63 282 -61
2884 -61 2305 0 2442 2 2691 31 407 48 982 206 1345 371 191 87 257 119 375
184 395 216 740 467 1045 759 307 295 520 547 875 1038 28 38 111 152 185 253
74 101 183 251 242 332 59 81 161 219 225 308 65 88 157 214 205 280 48 65
147 201 220 300 73 100 193 264 267 365 74 101 165 225 201 274 36 50 102 139
146 199 43 60 93 127 109 150 17 23 86 118 154 211 69 94 168 229 221 300 323
437 370 505 389 561 11 35 10 44 -8 87 -37 85 166 78 -2149 74 -2224 -3 -2126
-1 -2468 -57 -1074 -174 -2037 -676 -2814 -1467 -150 -152 -379 -421 -470
-553 -25 -36 -213 -291 -380 -515 -53 -71 -117 -159 -143 -195 -26 -36 -73
-100 -105 -143 -64 -88 -129 -178 -202 -282 -62 -87 -109 -153 -280 -389 -74
-103 -161 -224 -193 -269 -81 -116 -170 -242 -220 -312 -79 -112 -182 -257
-247 -350 -258 -366 -305 -420 -420 -478 -98 -49 -187 -65 -278 -48 -181 33
-314 151 -393 347 l-24 59 -5 2175 c-4 1767 -8 2183 -19 2215 -33 102 -108
193 -190 233 l-56 27 -2490 2 c-2185 1 -2496 0 -2538 -13z"/>
<path d="M5015 6089 c-304 -25 -499 -54 -745 -109 -19 -4 -51 -11 -70 -15 -19
-4 -46 -10 -60 -15 -14 -4 -44 -13 -67 -19 -103 -27 -135 -36 -258 -76 -391
-127 -736 -292 -1129 -541 -762 -480 -1432 -1214 -1881 -2059 -60 -114 -165
-322 -165 -329 0 -2 -15 -37 -33 -78 -46 -101 -48 -106 -121 -300 -35 -95 -76
-210 -90 -255 -36 -116 -74 -241 -87 -288 -38 -134 -76 -289 -89 -364 -4 -25
-15 -82 -24 -126 -22 -110 -35 -180 -66 -345 -20 -109 -54 -374 -80 -640 -18
-179 17 -287 130 -400 116 -117 -187 -105 2575 -108 1797 -2 2414 0 2454 9
136 29 247 142 287 294 11 41 14 431 14 2165 0 2323 -4 2172 61 2305 36 75
120 171 186 213 84 54 165 75 269 70 81 -3 100 -8 167 -41 129 -64 159 -98
531 -611 33 -44 89 -121 126 -171 36 -49 122 -166 190 -260 130 -180 155 -213
266 -365 39 -52 89 -122 112 -155 23 -33 59 -83 79 -112 80 -110 250 -342 317
-434 39 -53 91 -125 116 -159 25 -35 65 -91 90 -125 25 -34 65 -90 90 -124
109 -153 382 -516 467 -622 105 -132 329 -377 448 -490 373 -354 757 -629
1190 -850 463 -237 939 -395 1450 -480 348 -58 382 -59 2428 -59 1385 0 1870
3 1905 12 63 15 112 49 153 105 31 44 33 52 34 133 0 108 -11 131 -168 344
-34 47 -79 109 -99 138 -21 29 -86 119 -145 200 -59 80 -155 211 -212 290 -58
78 -137 186 -175 239 -39 53 -136 185 -216 294 -80 109 -177 242 -215 294 -39
53 -101 139 -138 191 -37 52 -91 127 -120 166 -28 40 -89 123 -134 185 -233
321 -678 929 -838 1144 -167 225 -380 494 -473 600 -318 362 -671 673 -1036
915 -248 164 -326 209 -591 340 -428 211 -873 356 -1285 420 -41 6 -95 16
-120 20 -57 11 -215 27 -395 40 -171 12 -4662 11 -4810 -1z"/>
</g>
</svg>
